<svg xmlns="http://www.w3.org/2000/svg" xmlns:xlink="http://www.w3.org/1999/xlink" viewBox="0 0 1310 600"><defs><style>.cls-1{fill:url(#名称未設定グラデーション_52);}</style><linearGradient id="名称未設定グラデーション_52" x1="655" y1="522.81" x2="655" y2="77.19" gradientUnits="userSpaceOnUse"><stop offset="0" stop-color="#132238"/><stop offset="0.27" stop-color="#152338"/><stop offset="0.41" stop-color="#1d2539"/><stop offset="0.53" stop-color="#2b283b"/><stop offset="0.62" stop-color="#3e2d3e"/><stop offset="0.71" stop-color="#583342"/><stop offset="0.8" stop-color="#763a46"/><stop offset="0.87" stop-color="#9b434c"/><stop offset="0.94" stop-color="#c54e52"/><stop offset="1" stop-color="#eb5757"/></linearGradient></defs><title>アイコンのみ</title><g id="アイコンだけ"><path class="cls-1" d="M858.93,522.81c-16.18-40.1-34.33-85.08-52.55-130.28V193.46a8.76,8.76,0,0,0-8.76-8.75H784.87a8.75,8.75,0,0,0-8.75,8.75v124c-43.36-107.7-80.71-200.93-84-210.79C685,86.11,683.2,77.19,656.43,77.19h-5.35c-19.63,0-26.77,7.14-31.23,21.42-7.28,20.6-105.08,264.66-168.78,424.2ZM658.39,320.54h37.93v37.93H658.39Zm0,44.62h37.93v37.92H658.39Zm-7.31-240.68-8,20.73C646.4,136.46,649.09,129.44,651.08,124.48Zm-37.3,196.06H651.7v37.93H613.78Zm37.92,44.62v37.92H613.78V365.16Z"/></g></svg>