<svg xmlns="http://www.w3.org/2000/svg" xmlns:xlink="http://www.w3.org/1999/xlink" viewBox="0 0 1310 600"><defs><style>.cls-1{fill:#132238;}.cls-2{fill:url(#名称未設定グラデーション_52);}</style><linearGradient id="名称未設定グラデーション_52" x1="655" y1="455.62" x2="655" y2="10" gradientUnits="userSpaceOnUse"><stop offset="0" stop-color="#132238"/><stop offset="0.27" stop-color="#152338"/><stop offset="0.41" stop-color="#1d2539"/><stop offset="0.53" stop-color="#2b283b"/><stop offset="0.62" stop-color="#3e2d3e"/><stop offset="0.71" stop-color="#583342"/><stop offset="0.8" stop-color="#763a46"/><stop offset="0.87" stop-color="#9b434c"/><stop offset="0.94" stop-color="#c54e52"/><stop offset="1" stop-color="#eb5757"/></linearGradient></defs><title>ver06(アイコンあるver)</title><g id="アイコンポイのあるやつ"><path class="cls-1" d="M475.63,474.3c0-3.94,1.6-4.92,4.8-4.92h15c34.61,0,46.19,17.49,46.19,40.64.12,25.5-11.7,43.11-46.32,43.11H479.69a4.19,4.19,0,0,1-4.43-4.43C475.5,543.89,475.75,482.31,475.63,474.3Zm20.2,72.8c29.68,0,38.92-15,38.92-37.08,0-18.6-8.87-34.61-38.8-34.61H482c.13,15.89-.24,50.87-.12,71.69Z"/><path class="cls-1" d="M570.94,549.81c.74-2.22,29.31-73.29,30.79-77.48.62-2,1.6-2.95,4.31-2.95h.74c3.7,0,3.94,1.23,4.93,4.06,1.11,3.33,30.3,75.38,31,77.35.24,1,0,2.34-2.1,2.34h-1.48c-2.58,0-2.83-1.48-3.08-2.34-1.72-3.94-6.28-14.9-8.25-19.83H585.1c-2.83,7.51-7,17.12-7.88,19.59s-2.34,2.58-3.08,2.58H571.8C570.2,553.13,570,552,570.94,549.81Zm55-24.64c-7.76-19.34-16.87-43.11-19.21-49.26H606c-2.22,5.54-10.84,29.68-19,49.26Z"/><path class="cls-1" d="M711.56,468.15c11.7,0,19.46,3.69,22.67,5.78,2.46,1.61,3.45,3.45.61,6.16a6.1,6.1,0,0,1-1.23,1.11s-8.25-7-22.54-7c-21.31,0-32.64,15.52-32.64,36.95,0,21.68,12.81,37.2,32.89,37.2a34,34,0,0,0,17.24-4.44c1.36-.73,2.59-1.23,3.7.5l1.23,1.72c.74,1,.61,2.09-.86,3.08s-8.87,5.17-21.31,5.17c-26.73,0-39.54-18.23-39.79-43.11C671.29,487.48,684.47,468.15,711.56,468.15Z"/><path class="cls-1" d="M765.42,474.3c0-2.09-1-4.92,2.21-4.92h2.1c2.21,0,2.34,2.34,2.21,4.31-.12,1.35-.12,18.1,0,35.22h55.68V474.3c0-2.09-1-4.92,2.21-4.92h2.1c2.21,0,2.34,2.34,2.21,4.31,0,2.22.25,71.44.5,74.51,0,2.1.86,4.93-2.34,4.93h-2.1c-2.34,0-2.46-2.46-2.34-4.43.12-2.47,0-18.35,0-34H772.07c.12,16.26.24,31.66.37,33.5.12,2.1.73,4.93-2.34,4.93h-2c-2.35,0-2.59-2.46-2.35-4.43C765.91,543.89,765.29,475.78,765.42,474.3Z"/><path class="cls-2" d="M858.93,455.62c-16.18-40.1-34.33-85.08-52.56-130.28V126.27a8.74,8.74,0,0,0-8.75-8.75H784.87a8.74,8.74,0,0,0-8.75,8.75v124c-43.36-107.7-80.71-200.93-84-210.79C685,18.92,683.2,10,656.43,10h-5.35c-19.64,0-26.77,7.14-31.23,21.41C612.57,52,514.77,296.08,451.07,455.62ZM658.39,253.35h37.92v37.93H658.39Zm0,44.62h37.92v37.92H658.39ZM651.08,57.29,643.1,78C646.4,69.27,649.09,62.25,651.08,57.29ZM613.77,253.35H651.7v37.93H613.77ZM651.7,298v37.92H613.77V298Z"/></g></svg>