<svg id="ver.05" xmlns="http://www.w3.org/2000/svg" xmlns:xlink="http://www.w3.org/1999/xlink" viewBox="0 0 1310 600"><defs><style>.cls-1{fill:url(#名称未設定グラデーション_52);}.cls-2{fill:url(#名称未設定グラデーション_52-2);}.cls-3{fill:url(#名称未設定グラデーション_52-3);}.cls-4{fill:url(#名称未設定グラデーション_52-4);}</style><linearGradient id="名称未設定グラデーション_52" x1="237.63" y1="436" x2="237.63" y2="164" gradientUnits="userSpaceOnUse"><stop offset="0" stop-color="#132238"/><stop offset="0.27" stop-color="#152338"/><stop offset="0.41" stop-color="#1d2539"/><stop offset="0.53" stop-color="#2b283b"/><stop offset="0.62" stop-color="#3e2d3e"/><stop offset="0.71" stop-color="#583342"/><stop offset="0.8" stop-color="#763a46"/><stop offset="0.87" stop-color="#9b434c"/><stop offset="0.94" stop-color="#c54e52"/><stop offset="1" stop-color="#eb5757"/></linearGradient><linearGradient id="名称未設定グラデーション_52-2" x1="505.04" y1="436" x2="505.04" y2="164" xlink:href="#名称未設定グラデーション_52"/><linearGradient id="名称未設定グラデーション_52-3" x1="774.62" y1="440" x2="774.62" y2="160" xlink:href="#名称未設定グラデーション_52"/><linearGradient id="名称未設定グラデーション_52-4" x1="1067.36" y1="436" x2="1067.36" y2="164" xlink:href="#名称未設定グラデーション_52"/></defs><title>ver05(ver04を細くしたやつ)</title><path class="cls-1" d="M131,180c0-12.8,5.19-16,15.59-16h48.8c112.4,0,150,56.8,150,132,.4,82.8-38,140-150.4,140h-50.8c-7.6,0-14.4-4.8-14.4-14.4C130.63,406,131.43,206,131,180Zm65.59,236.4C293,416.4,323,367.6,323,296c0-60.4-28.8-112.4-126-112.4h-45.2c.4,51.6-.8,165.2-.4,232.8Z"/><path class="cls-2" d="M622.45,428.4c-1.19-3.19-25.25-62.7-49.58-123V216.12A3.91,3.91,0,0,0,569,212.2h-5.72a3.91,3.91,0,0,0-3.92,3.92v55.57c-19.44-48.28-36.18-90.07-37.65-94.49-3.2-9.2-4-13.2-16-13.2h-2.4c-8.8,0-12,3.2-14,9.6-4.8,13.6-97.6,244.4-100,251.6-3.2,7.2-2.4,10.8,2.8,10.8h7.6c2.4,0,7.6-.4,10-8.4,2.8-8,16.4-39.2,25.6-63.6h138.8c6.4,16,21.2,51.6,26.8,64.4.8,2.8,1.6,7.6,10,7.6h4.8C622.45,436,623.25,431.6,622.45,428.4ZM503.26,185.2l-3.58,9.29C501.16,190.57,502.37,187.42,503.26,185.2Zm.28,124.89h-17v-17h17Zm0-20h-17v-17h17Zm20,20h-17v-17h17Zm0-20h-17v-17h17Z"/><path class="cls-3" d="M799,160c38,0,63.2,12,73.6,18.8,8,5.2,11.2,11.2,2,20a20.41,20.41,0,0,1-4,3.6s-26.8-22.8-73.2-22.8c-69.2,0-106,50.4-106,120,0,70.4,41.6,120.8,106.8,120.8,26,0,45.2-8,56-14.4,4.4-2.4,8.4-4,12,1.6l4,5.6c2.4,3.2,2,6.8-2.8,10-5.2,3.6-28.8,16.8-69.2,16.8-86.8,0-128.4-59.2-129.2-140C668.23,222.8,711,160,799,160Z"/><path class="cls-4" d="M955,180c0-6.8-3.2-16,7.2-16H969c7.19,0,7.59,7.6,7.19,14-.39,4.4-.39,58.8,0,114.4H1157V180c0-6.8-3.2-16,7.2-16h6.8c7.2,0,7.6,7.6,7.2,14,0,7.2.8,232,1.6,242,0,6.8,2.8,16-7.6,16h-6.8c-7.6,0-8-8-7.6-14.4.4-8,0-59.6,0-110.4H976.62c.41,52.8.8,102.8,1.21,108.8.39,6.8,2.39,16-7.61,16h-6.39c-7.6,0-8.4-8-7.6-14.4C956.62,406,954.62,184.8,955,180Z"/></svg>